# xmcd
#
# Track frame offsets:
#	150
#	20422
#	36037
#	60240
#	81952
#	105872
#	125782
#	147352
#	170067
#	192077
#	216810
#
# Disc length: 3062 seconds
#
# Revision: 1
# Processed by: cddbd v1.5.1PL0 Copyright (c) Steve Scherf et al.
# Submitted via: CDex 1.50Beta5
#
DISCID=920bf40b
DTITLE=中山加奈子 - ナカヤマの一発。
DYEAR=1995
DGENRE=Rock
TTITLE0=カナコのサーフィン JPN
TTITLE1=憂さ晴らし
TTITLE2=史上最大の作戦
TTITLE3=ベル
TTITLE4=雲
TTITLE5=ブロードウェイ
TTITLE6=サテンドール
TTITLE7=あれから
TTITLE8=無法地帯
TTITLE9=もう一度あいたい
TTITLE10=おサケの唄
EXTD=
EXTT0=
EXTT1=
EXTT2=
EXTT3=
EXTT4=
EXTT5=
EXTT6=
EXTT7=
EXTT8=
EXTT9=
EXTT10=
PLAYORDER=
